<svg width="1024" height="1024" viewBox="58 58 116 116" xmlns="http://www.w3.org/2000/svg">
<title>Notch Sixty app icon</title>
<g transform="translate(116,116)">
<rect x="-58" y="-58" width="116" height="116" rx="20" fill="#E8A84A"/>
<rect x="-56" y="-56" width="112" height="112" rx="18" fill="none" stroke="#412402" stroke-width="4"/>
<rect x="-48" y="-36" width="96" height="78" rx="4" fill="#FAF6EE"/>
<path d="M -33.83 -4.31 A 36 36 0 0 1 19.34 -22.36" fill="none" stroke="#1A1A1A" stroke-width="2.2"/>
<path d="M 19.34 -22.36 A 36 36 0 0 1 33.83 -4.31" fill="none" stroke="#A32D2D" stroke-width="2.2"/>
<g stroke="#1A1A1A" stroke-width="1">
<line x1="-9.23" y1="-23.68" x2="-7.70" y2="-18.40"/>
<line x1="9.23" y1="-23.68" x2="7.70" y2="-18.40"/>
<line x1="-25.74" y1="-12.66" x2="-21.45" y2="-9.21"/>
</g>
<g stroke="#A32D2D" stroke-width="1">
<line x1="25.74" y1="-12.66" x2="21.45" y2="-9.21"/>
</g>
<g stroke="#1A1A1A" stroke-width="1.4">
<line x1="-30.76" y1="-3.94" x2="-10.25" y2="4.02"/>
<line x1="-17.73" y1="-19.83" x2="-11.82" y2="-10.55"/>
<line x1="0" y1="-25" x2="0" y2="-3"/>
<line x1="17.73" y1="-19.83" x2="11.82" y2="-10.55"/>
</g>
<g stroke="#A32D2D" stroke-width="1.4">
<line x1="30.76" y1="-3.94" x2="10.25" y2="4.02"/>
</g>
<line x1="0" y1="8" x2="-27.53" y2="-23.32" stroke="#412402" stroke-width="2.8" stroke-linecap="round"/>
<circle cx="0" cy="8" r="3.5" fill="#412402"/>
<text x="0" y="26" text-anchor="middle" font-family="Futura, 'Avenir Next', 'Helvetica Neue', Arial, sans-serif" font-size="10" font-weight="700" fill="#633806" letter-spacing="0.5">NOTCH SIXTY</text>
</g>
</svg>
