<svg width="512" height="512" viewBox="0 0 232 232" xmlns="http://www.w3.org/2000/svg">
<title>Notch Sixty menu bar tray icon (template image source)</title>
<g transform="translate(116,116)">
<rect x="-52" y="-52" width="104" height="104" rx="16" fill="none" stroke="#1A1A1A" stroke-width="6"/>
<path d="M -33.83 -4.31 A 36 36 0 0 1 23.14 -19.58" fill="none" stroke="#1A1A1A" stroke-width="5" stroke-linecap="round"/>
<path d="M 23.14 -19.58 A 36 36 0 0 1 33.83 -4.31" fill="none" stroke="#1A1A1A" stroke-width="5" stroke-linecap="round"/>
<g stroke="#1A1A1A" stroke-width="3.5" stroke-linecap="round">
<line x1="-33.83" y1="-4.31" x2="-13.16" y2="3.21"/>
<line x1="-19.34" y1="-22.36" x2="-13.43" y2="-13.08"/>
<line x1="0" y1="-28" x2="0" y2="-6"/>
<line x1="19.34" y1="-22.36" x2="13.43" y2="-13.08"/>
<line x1="33.83" y1="-4.31" x2="13.16" y2="3.21"/>
</g>
<line x1="0" y1="8" x2="-27.53" y2="-23.32" stroke="#1A1A1A" stroke-width="3" stroke-linecap="round"/>
<circle cx="0" cy="8" r="3.5" fill="#1A1A1A"/>
<g transform="translate(-16,26)">
<line x1="-9" y1="0" x2="-2" y2="0" stroke="#1A1A1A" stroke-width="3" stroke-linecap="round"/>
<line x1="2" y1="0" x2="9" y2="0" stroke="#1A1A1A" stroke-width="3" stroke-linecap="round"/>
<rect x="-2" y="-7" width="4" height="14" fill="#1A1A1A" rx="1.5"/>
</g>
<text x="5" y="32" font-family="Helvetica, Arial, sans-serif" font-size="19" font-weight="700" fill="#1A1A1A">60</text>
</g>
</svg>
